<svg version="1.2" xmlns="http://www.w3.org/2000/svg" viewBox="0 0 570 392" width="570" height="392"><style>.a{fill:none}.b{fill:#5d87a1}.c{fill:#f8981d}</style><path fill-rule="evenodd" class="a" d="m694.3-94.2v554.5h-800v-554.5z"/><path class="b" d="m139.2 353.6h-21.7q-1.2-54.8-6.3-103.1h-0.2l-33 103.1h-16.5l-32.8-103.1h-0.2q-3.6 46.4-4.6 103.1h-19.7q1.9-69 9.6-129.4h26.8l31.3 95.1h0.2l31.4-95.1h25.7q8.4 70.8 10 129.4zm93.9-95.4q-13.3 71.7-34.9 104.3-16.9 25-37 25-5.4 0-13.2-3.2v-11.5q3.8 0.6 9 0.6 9.4 0 15.1-5.2 6.9-6.3 6.9-14.2 0-5.4-5.4-22l-23.7-73.9h21.3l17 55.2q5.8 18.8 4.8 26.3 14-37.4 19.6-81.5h20.5z"/><path class="c" d="m521.4 353.6h-61.5v-129.4h20.6v113.5h40.9zm-77.7 3.1l-23.7-11.7c2.1-1.8 4.1-3.6 5.9-5.8q15.2-17.8 15.2-52.7 0-64.2-50.5-64.2-24.7 0-38.5 16.3-15.1 17.8-15.1 52.5 0 34.1 13.4 50 12.3 14.4 37 14.4 9.2 0 16.9-2.3l31 18.1zm-77.1-29.1q-7.8-12.6-7.8-40.6 0-48.9 29.7-48.9 15.5 0 22.8 11.7 7.9 12.7 7.9 40.3 0 49.2-29.7 49.2-15.6 0.1-22.9-11.7zm-38.7-9.9q0 16.4-12.1 27-12 10.5-32.3 10.5-19 0-36.9-12l5.6-11.2q15.3 7.7 27.8 7.7 11.7 0 18.3-5.2c4.4-3.4 7-8.2 7-14.3 0-7.7-5.3-14.3-15.1-19.8-9.1-5-27.3-15.4-27.3-15.4-9.8-7.1-14.7-14.8-14.7-27.5q0-15.7 11-25.4 11-9.7 28.5-9.7c12 0 22.9 3.2 32.7 9.6l-4.9 11.1q-12.7-5.3-24.9-5.3-10-0.1-15.4 4.7c-3.6 3.2-5.8 7.3-5.8 12.3 0 7.7 5.5 14.3 15.6 19.9 9.2 5 27.8 15.6 27.8 15.6 10.1 7.2 15.1 14.8 15.1 27.4z"/><path class="b" d="m547.4 180.9c-12.6-0.3-22.2 0.9-30.4 4.4-2.3 0.9-6.1 0.9-6.4 3.9 1.3 1.2 1.4 3.2 2.5 5 1.9 3.1 5.2 7.3 8.2 9.5 3.2 2.5 6.5 5 10 7.2 6.1 3.8 12.9 5.9 18.9 9.7 3.4 2.2 6.9 5 10.3 7.3 1.7 1.3 2.8 3.3 5 4.1v-0.5c-1.1-1.4-1.4-3.4-2.5-5l-4.7-4.5c-4.5-6.1-10.2-11.4-16.2-15.8-5.1-3.4-16-8.1-18-13.9l-0.3-0.3c3.4-0.3 7.5-1.6 10.7-2.5 5.4-1.4 10.2-1.1 15.7-2.5 2.5-0.6 5-1.4 7.5-2.2v-1.4c-2.8-2.8-4.9-6.6-7.8-9.2-8-6.9-16.8-13.6-25.8-19.3-4.9-3.1-11.1-5.1-16.3-7.8-1.9-0.9-5-1.4-6.1-3-2.8-3.4-4.4-7.9-6.4-12-4.5-8.6-8.9-18.1-12.8-27.2-2.8-6.1-4.6-12.2-8-17.8-16.1-26.6-33.6-42.7-60.5-58.5-5.8-3.3-12.7-4.7-20-6.4l-11.7-0.6c-2.5-1.1-5-4.1-7.2-5.5-9-5.6-31.9-17.8-38.5-1.7-4.2 10.1 6.3 20.1 9.9 25.3 2.6 3.6 6.1 7.7 7.9 11.7 1.1 2.7 1.4 5.5 2.5 8.3 2.5 6.9 4.9 14.6 8.2 21 1.7 3.2 3.6 6.7 5.7 9.6 1.3 1.8 3.5 2.5 4 5.4-2.2 3.1-2.4 7.8-3.6 11.7-5.7 17.7-3.5 39.5 4.5 52.5 2.5 3.9 8.5 12.5 16.4 9.2 7.1-2.8 5.5-11.7 7.5-19.5 0.5-1.9 0.2-3.1 1.1-4.4v0.3c2.2 4.4 4.4 8.6 6.4 13 4.9 7.7 13.3 15.7 20.4 21 3.7 2.8 6.7 7.6 11.4 9.3v-0.4h-0.3c-1-1.4-2.4-2-3.6-3.1-2.9-2.9-6-6.3-8.2-9.4-6.5-8.8-12.3-18.5-17.5-28.5-2.5-4.8-4.7-10.1-6.7-15-0.9-1.9-0.9-4.7-2.5-5.6-2.4 3.4-5.8 6.4-7.5 10.6-3 6.7-3.3 15-4.4 23.6l-0.6 0.3c-5-1.2-6.7-6.4-8.6-10.7-4.7-11.2-5.5-29-1.4-41.8 1.1-3.3 5.8-13.6 3.9-16.7-0.9-3-4.1-4.7-5.8-7.1-2-2.9-4.2-6.7-5.6-10-3.8-8.7-5.7-18.4-9.7-27.2-1.9-4-5.2-8.3-7.8-12-3-4.2-6.3-7.2-8.6-12.2-0.8-1.7-1.9-4.5-0.7-6.4 0.4-1.3 1-1.7 2.2-2 2.1-1.8 7.9 0.4 9.9 1.4 5.8 2.3 10.6 4.5 15.5 7.8 2.2 1.5 4.5 4.5 7.3 5.3h3.3c5 1.1 10.6 0.3 15.3 1.7 8.3 2.7 15.8 6.6 22.5 10.8 20.5 13 37.4 31.4 48.8 53.5 1.9 3.6 2.7 6.9 4.4 10.6 3.3 7.7 7.3 15.5 10.6 23 3.3 7.3 6.4 14.8 11.1 20.9 2.4 3.3 11.8 5 16 6.8 3.1 1.4 7.9 2.6 10.8 4.3 5.3 3.3 10.6 7.1 15.6 10.7 2.5 1.8 10.3 5.7 10.8 8.9zm-159.5-135.9q-0.8 0-1.6 0-0.8 0.1-1.6 0.2-0.9 0.1-1.6 0.2-0.8 0.2-1.6 0.4v0.3h0.3c1.2 2.5 3.4 4.2 5 6.4 1.2 2.5 2.3 5 3.6 7.5l0.3-0.3c2.2-1.5 3.3-4.1 3.3-7.8-1-1.1-1.1-2.2-1.9-3.3-0.9-1.6-3-2.3-4.2-3.6z"/><path class="c" d="m562.2 353.6h3.3v-15.9h-4.9l-3.9 10.9-4.3-10.9h-4.7v15.9h3v-12.1h0.2l4.5 12.1h2.4l4.4-12.1zm-26 0h3.4v-13.1h4.5v-2.7h-12.6v2.7h4.6z"/></svg>